<?xml version="1.0" encoding="utf-8"?>
<!-- Generated by Mocodo 4.3.2 -->
<svg width="396" height="170" viewBox="0 0 396 170" xmlns="http://www.w3.org/2000/svg">
<rect x="0" y="0" width="396" height="170" fill="#f7f7f7" stroke="none" stroke-width="0"/>

<!-- Association POSSEDE -->
<g>
	<line x1="319" y1="85" x2="187" y2="85" stroke="#de77ae" stroke-width="2"/>
	<line x1="66" y1="85" x2="187" y2="85" stroke="#de77ae" stroke-width="2"/>
	<g>
		<path d="M205 60 a14 14 90 0 1 14 14 V85 h-64 V74 a14 14 90 0 1 14 -14" fill="#f1b6da" stroke="#f1b6da" stroke-width="0"/>
		<path d="M219 85 v11 a14 14 90 0 1 -14 14 H169 a14 14 90 0 1 -14 -14 V85 H64" fill="#fde0ef" stroke="#fde0ef" stroke-width="0"/>
		<rect x="155" y="60" width="64" height="50" fill="none" rx="14" stroke="#de77ae" stroke-width="2"/>
		<line x1="155" y1="85" x2="219" y2="85" stroke="#de77ae" stroke-width="1"/>
		<text x="162" y="77.75" fill="#000000" font-family="Verdana" font-size="12">Possède</text>
		<text x="162" y="102.8" fill="#000000" font-family="Verdana" font-size="12">status</text>
	</g>
	<text x="224" y="102" fill="#4d9221" font-family="Verdana" font-size="12">0,N</text>
	<text x="128" y="102" fill="#4d9221" font-family="Verdana" font-size="12">0,N</text>
</g>

<!-- Entity UTILISATEUR -->
<g>
	<g>
		<rect x="9" y="43" width="114" height="25" fill="#b8e186" stroke="none" stroke-width="0" opacity="1"/>
		<rect x="9" y="68" width="114" height="59" fill="#e6f5d0" stroke="none" stroke-width="0" opacity="1"/>
		<rect x="9" y="43" width="114" height="84" fill="none" stroke="#7fbc41" stroke-width="2" opacity="1"/>
		<line x1="9" y1="68" x2="123" y2="68" stroke="#7fbc41" stroke-width="1"/>
	</g>
	<text x="35" y="60.75" fill="#000000" font-family="Verdana" font-size="12">Utilisateur</text>
	<text x="14" y="85.8" fill="#000000" font-family="Verdana" font-size="12">email</text>
	<line x1="14" y1="88" x2="48" y2="88" stroke="#000000" stroke-width="1"/>
	<text x="14" y="102.8" fill="#000000" font-family="Verdana" font-size="12">nom d’utilisateur</text>
	<text x="14" y="119.8" fill="#000000" font-family="Verdana" font-size="12">mot de passe</text>
</g>

<!-- Entity LIVRE -->
<g>
	<g>
		<rect x="251" y="9" width="136" height="25" fill="#b8e186" stroke="none" stroke-width="0" opacity="1"/>
		<rect x="251" y="34" width="136" height="127" fill="#e6f5d0" stroke="none" stroke-width="0" opacity="1"/>
		<rect x="251" y="9" width="136" height="152" fill="none" stroke="#7fbc41" stroke-width="2" opacity="1"/>
		<line x1="251" y1="34" x2="387" y2="34" stroke="#7fbc41" stroke-width="1"/>
	</g>
	<text x="304" y="26.75" fill="#000000" font-family="Verdana" font-size="12">Livre</text>
	<text x="256" y="51.8" fill="#000000" font-family="Verdana" font-size="12">isbn</text>
	<line x1="256" y1="54" x2="282" y2="54" stroke="#000000" stroke-width="1"/>
	<text x="256" y="68.8" fill="#000000" font-family="Verdana" font-size="12">tite</text>
	<text x="256" y="85.8" fill="#000000" font-family="Verdana" font-size="12">auteur</text>
	<text x="256" y="102.8" fill="#000000" font-family="Verdana" font-size="12">résumé</text>
	<text x="256" y="119.8" fill="#000000" font-family="Verdana" font-size="12">genre</text>
	<text x="256" y="136.8" fill="#000000" font-family="Verdana" font-size="12">image de couverture</text>
	<text x="256" y="153.8" fill="#000000" font-family="Verdana" font-size="12">date de publication</text>
</g>
</svg>