<?xml version="1.0" encoding="utf-8"?>
<!-- Generated by Mocodo 4.3.2 -->
<svg width="396" height="279" viewBox="0 0 396 279" xmlns="http://www.w3.org/2000/svg">
<rect x="0" y="0" width="396" height="279" fill="#f7f7f7" stroke="none" stroke-width="0"/>

<!-- Association ECRIRE -->
<g>
	<line x1="66" y1="194" x2="66" y2="51" stroke="#8073ac" stroke-width="2"/>
	<line x1="187" y1="51" x2="66" y2="51" stroke="#8073ac" stroke-width="2"/>
	<g>
		<path d="M77 26 a14 14 90 0 1 14 14 V51 h-50 V40 a14 14 90 0 1 14 -14" fill="#b2abd2" stroke="#b2abd2" stroke-width="0"/>
		<path d="M91 51 v11 a14 14 90 0 1 -14 14 H55 a14 14 90 0 1 -14 -14 V51 H50" fill="#d8daeb" stroke="#d8daeb" stroke-width="0"/>
		<rect x="41" y="26" width="50" height="50" fill="none" rx="14" stroke="#8073ac" stroke-width="2"/>
		<line x1="41" y1="51" x2="91" y2="51" stroke="#8073ac" stroke-width="1"/>
		<text x="49" y="43.75" fill="#000000" font-family="Verdana" font-size="12">Ecrire</text>
	</g>
	<text x="71" y="118" fill="#b35806" font-family="Verdana" font-size="12">0,N</text>
	<text x="116" y="68" fill="#b35806" font-family="Verdana" font-size="12">1,1</text>
</g>

<!-- Association APPARTIENT -->
<g>
	<line x1="187" y1="51" x2="319" y2="51" stroke="#8073ac" stroke-width="2"/>
	<line x1="319" y1="194" x2="319" y2="51" stroke="#8073ac" stroke-width="2"/>
	<g>
		<path d="M344 26 a14 14 90 0 1 14 14 V51 h-78 V40 a14 14 90 0 1 14 -14" fill="#b2abd2" stroke="#b2abd2" stroke-width="0"/>
		<path d="M358 51 v11 a14 14 90 0 1 -14 14 H294 a14 14 90 0 1 -14 -14 V51 H78" fill="#d8daeb" stroke="#d8daeb" stroke-width="0"/>
		<rect x="280" y="26" width="78" height="50" fill="none" rx="14" stroke="#8073ac" stroke-width="2"/>
		<line x1="280" y1="51" x2="358" y2="51" stroke="#8073ac" stroke-width="1"/>
		<text x="287" y="43.75" fill="#000000" font-family="Verdana" font-size="12">Appartient</text>
	</g>
	<text x="237" y="68" fill="#b35806" font-family="Verdana" font-size="12">1,1</text>
	<text x="324" y="110" fill="#b35806" font-family="Verdana" font-size="12">0,N</text>
</g>

<!-- Association POSSEDE -->
<g>
	<line x1="319" y1="194" x2="187" y2="194" stroke="#8073ac" stroke-width="2"/>
	<line x1="66" y1="194" x2="187" y2="194" stroke="#8073ac" stroke-width="2"/>
	<g>
		<path d="M205 169 a14 14 90 0 1 14 14 V194 h-64 V183 a14 14 90 0 1 14 -14" fill="#b2abd2" stroke="#b2abd2" stroke-width="0"/>
		<path d="M219 194 v11 a14 14 90 0 1 -14 14 H169 a14 14 90 0 1 -14 -14 V194 H64" fill="#d8daeb" stroke="#d8daeb" stroke-width="0"/>
		<rect x="155" y="169" width="64" height="50" fill="none" rx="14" stroke="#8073ac" stroke-width="2"/>
		<line x1="155" y1="194" x2="219" y2="194" stroke="#8073ac" stroke-width="1"/>
		<text x="162" y="186.75" fill="#000000" font-family="Verdana" font-size="12">Possède</text>
	</g>
	<text x="224" y="211" fill="#b35806" font-family="Verdana" font-size="12">0,N</text>
	<text x="128" y="211" fill="#b35806" font-family="Verdana" font-size="12">0,N</text>
</g>

<!-- Entity AVIS -->
<g>
	<g>
		<rect x="142" y="9" width="90" height="25" fill="#fdb863" stroke="none" stroke-width="0" opacity="1"/>
		<rect x="142" y="34" width="90" height="59" fill="#fee0b6" stroke="none" stroke-width="0" opacity="1"/>
		<rect x="142" y="9" width="90" height="84" fill="none" stroke="#e08214" stroke-width="2" opacity="1"/>
		<line x1="142" y1="34" x2="232" y2="34" stroke="#e08214" stroke-width="1"/>
	</g>
	<text x="174" y="26.75" fill="#000000" font-family="Verdana" font-size="12">Avis</text>
	<text x="147" y="51.8" fill="#000000" font-family="Verdana" font-size="12">Référence</text>
	<line x1="147" y1="54" x2="208" y2="54" stroke="#000000" stroke-width="1"/>
	<text x="147" y="68.8" fill="#000000" font-family="Verdana" font-size="12">note</text>
	<text x="147" y="85.8" fill="#000000" font-family="Verdana" font-size="12">commentaire</text>
</g>

<!-- Entity UTILISATEUR -->
<g>
	<g>
		<rect x="9" y="126" width="114" height="25" fill="#fdb863" stroke="none" stroke-width="0" opacity="1"/>
		<rect x="9" y="151" width="114" height="111" fill="#fee0b6" stroke="none" stroke-width="0" opacity="1"/>
		<rect x="9" y="126" width="114" height="136" fill="none" stroke="#e08214" stroke-width="2" opacity="1"/>
		<line x1="9" y1="151" x2="123" y2="151" stroke="#e08214" stroke-width="1"/>
	</g>
	<text x="35" y="143.75" fill="#000000" font-family="Verdana" font-size="12">Utilisateur</text>
	<text x="14" y="168.8" fill="#000000" font-family="Verdana" font-size="12">Référence</text>
	<line x1="14" y1="171" x2="75" y2="171" stroke="#000000" stroke-width="1"/>
	<text x="14" y="185.8" fill="#000000" font-family="Verdana" font-size="12">email</text>
	<text x="14" y="202.8" fill="#000000" font-family="Verdana" font-size="12">nom d’utilisateur</text>
	<text x="14" y="219.8" fill="#000000" font-family="Verdana" font-size="12">mot de passe</text>
	<text x="14" y="236.8" fill="#000000" font-family="Verdana" font-size="12">nom</text>
	<text x="14" y="253.8" fill="#000000" font-family="Verdana" font-size="12">prénom</text>
</g>

<!-- Entity LIVRE -->
<g>
	<g>
		<rect x="251" y="118" width="136" height="25" fill="#fdb863" stroke="none" stroke-width="0" opacity="1"/>
		<rect x="251" y="143" width="136" height="127" fill="#fee0b6" stroke="none" stroke-width="0" opacity="1"/>
		<rect x="251" y="118" width="136" height="152" fill="none" stroke="#e08214" stroke-width="2" opacity="1"/>
		<line x1="251" y1="143" x2="387" y2="143" stroke="#e08214" stroke-width="1"/>
	</g>
	<text x="304" y="135.75" fill="#000000" font-family="Verdana" font-size="12">Livre</text>
	<text x="256" y="160.8" fill="#000000" font-family="Verdana" font-size="12">Référence</text>
	<line x1="256" y1="163" x2="317" y2="163" stroke="#000000" stroke-width="1"/>
	<text x="256" y="177.8" fill="#000000" font-family="Verdana" font-size="12">tite</text>
	<text x="256" y="194.8" fill="#000000" font-family="Verdana" font-size="12">auteur</text>
	<text x="256" y="211.8" fill="#000000" font-family="Verdana" font-size="12">résumé</text>
	<text x="256" y="228.8" fill="#000000" font-family="Verdana" font-size="12">genre</text>
	<text x="256" y="245.8" fill="#000000" font-family="Verdana" font-size="12">image de couverture</text>
	<text x="256" y="262.8" fill="#000000" font-family="Verdana" font-size="12">date de publication</text>
</g>
</svg>